HIERARCHY
ROOT Hips
{
  OFFSET 0 0 0
  CHANNELS 6 Xposition Yposition Zposition Zrotation Yrotation Xrotation
  JOINT LeftThigh
  {
    OFFSET 8.409438 0 -5.917753
    CHANNELS 3 Zrotation Yrotation Xrotation
    JOINT LeftLeg
    {
      OFFSET 0 0 -42.358652
      CHANNELS 3 Zrotation Yrotation Xrotation
      JOINT LeftFoot
      {
        OFFSET 0 0 -39.357303
        CHANNELS 3 Zrotation Yrotation Xrotation
      }
    }
  }
  JOINT RightThigh
  {
    OFFSET -8.409438 0 -5.917753
    CHANNELS 3 Zrotation Yrotation Xrotation
    JOINT RightLeg
    {
      OFFSET 0 0 -42.358652
      CHANNELS 3 Zrotation Yrotation Xrotation
      JOINT RightFoot
      {
        OFFSET 0 0 -39.357303
        CHANNELS 3 Zrotation Yrotation Xrotation
      }
    }
  }
  JOINT SpineLow
  {
    OFFSET 0 0 4.719101
    CHANNELS 3 Zrotation Yrotation Xrotation
    JOINT SpineMid
    {
      OFFSET 0 0 12.899191
      CHANNELS 3 Zrotation Yrotation Xrotation
      JOINT Chest
      {
        OFFSET 0 0 12.899191
        CHANNELS 3 Zrotation Yrotation Xrotation
        JOINT LeftShoulder
        {
          OFFSET 7.550562 1.41573 9.438202
          CHANNELS 3 Zrotation Yrotation Xrotation
          JOINT LeftArm
          {
            OFFSET 9.155056 0 4.247191
            CHANNELS 3 Zrotation Yrotation Xrotation
            JOINT LeftForearm
            {
              OFFSET 0 0 25.771955
              CHANNELS 3 Zrotation Yrotation Xrotation
              JOINT LeftHand
              {
                OFFSET 0 0 25.197169
                CHANNELS 3 Zrotation Yrotation Xrotation
              }
            }
          }
        }
        JOINT RightShoulder
        {
          OFFSET -7.550562 1.41573 9.438202
          CHANNELS 3 Zrotation Yrotation Xrotation
          JOINT RightArm
          {
            OFFSET -9.155056 0 4.247191
            CHANNELS 3 Zrotation Yrotation Xrotation
            JOINT RightForearm
            {
              OFFSET 0 0 -25.771955
              CHANNELS 3 Zrotation Yrotation Xrotation
              JOINT RightHand
              {
                OFFSET 0 0 -25.197169
                CHANNELS 3 Zrotation Yrotation Xrotation
              }
            }
          }
        }
        JOINT Neck
        {
          OFFSET 0 0 15.101124
          CHANNELS 3 Zrotation Yrotation Xrotation
          JOINT Head
          {
            OFFSET 0 0 11.325843
            CHANNELS 3 Zrotation Yrotation Xrotation
            End Site
            {
              OFFSET 0 0 14.157303
            }
          }
        }
      }
    }
  }
}
MOTION
Frames: 5
Frame Time: 0.0
0.0  89.887642  0.0  6.642031  -50.871057  -101.098908  34.062783  -41.579051  -30.784908  25.680161  23.834338  73.057756  8.012043  12.1315  5.205727  -24.897698  13.146232  -33.60151  26.064323  2.63328  52.77514  -1.833176  -2.168554  2.965443  1.233367  1.149594  0.882571  3.415048  3.095843  2.472018  3.415048  3.095843  2.472018  -14.02117  18.725834  8.023129  -99.193917  48.685161  -92.202561  -43.624754  3.089398  73.046307  75.872437  -5.258784  17.064565  -7.984423  0.729684  18.766679  157.689826  29.806388  63.589299  -33.828063  -17.239495  -70.643331  102.381751  5.482109  -30.634125  2.623301  -2.585692  7.39794  1.998809  -1.907891  5.558737  
0.0  89.887642  0.0  6.647517  -50.984597  -101.15887  34.076176  -41.5724  -30.204227  25.535529  23.788694  72.406247  8.04335  12.031464  5.166637  -25.738388  13.182673  -33.447986  26.218866  2.066384  52.010299  -1.607145  -1.606524  2.449304  1.293896  1.157152  0.920835  3.582672  3.112096  2.579877  3.582672  3.112096  2.579877  -13.979172  18.307474  7.682831  -99.708974  49.009257  -92.405928  -43.748209  3.19005  72.931806  75.996258  -5.162046  16.781223  -8.133133  0.59184  18.342129  157.231695  29.741621  63.213505  -33.831185  -16.984  -70.702979  102.36207  5.625771  -31.028573  2.458806  -2.649304  7.38258  1.876125  -1.957657  5.546717  
0.0  89.887642  0.0  6.721198  -51.046805  -101.189053  34.135352  -41.524369  -29.71882  25.341192  23.781618  71.662735  8.111305  11.823077  5.651935  -26.439913  13.138908  -33.529312  25.822083  2.41738  51.10101  -0.81399  -1.609085  3.024819  1.288404  1.173771  0.936696  3.569107  3.156852  2.623929  3.569107  3.156852  2.623929  -13.721564  17.865565  7.342215  -99.93358  49.328107  -92.512495  -43.880835  3.352226  72.856111  75.969366  -5.171812  16.696526  -8.173928  0.258752  18.073291  156.960027  29.491657  62.9366  -34.007833  -16.608041  -70.531779  102.372239  6.01392  -31.445281  2.54047  -2.656767  7.29741  1.937083  -1.962618  5.483237  
0.0  89.887642  0.0  6.772342  -51.230525  -101.460103  34.685306  -41.996713  -29.585913  25.208249  23.973365  71.223201  8.212001  11.814296  6.504159  -26.361013  12.996382  -33.146594  26.134539  3.532189  50.918094  0.341219  -2.350634  3.513965  1.284958  1.173491  0.986107  3.562002  3.153541  2.758859  3.562002  3.153541  2.758859  -13.358683  17.553338  7.01104  -99.831746  49.610537  -92.430913  -43.917432  3.551921  72.92223  75.808438  -5.285825  16.734639  -7.939417  0.161934  17.688976  156.52905  29.396672  62.589651  -34.024115  -16.314974  -70.613391  102.22022  6.315981  -31.605243  2.715835  -2.594105  7.14608  2.067215  -1.914182  5.370301  
0.0  89.887642  0.0  6.688194  -51.383501  -101.792754  34.686897  -42.714487  -29.630851  25.799346  23.85751  72.156609  7.929754  12.122871  5.854125  -26.126075  13.114137  -32.667225  26.208243  3.714706  51.466918  1.343406  -2.56359  2.685828  1.207508  1.138102  1.040332  3.351088  3.057364  2.901587  3.351087  3.057364  2.901587  -12.616197  17.421531  6.798152  -99.463504  49.764765  -92.248051  -43.823057  3.684983  73.150775  75.608728  -5.465474  16.776475  -7.484865  0.05851  17.582452  156.197683  29.252761  62.322492  -34.221458  -16.126751  -70.407177  102.220952  6.729433  -31.763808  3.188065  -2.43348  6.994604  2.418931  -1.788962  5.258032  
